# xmcd CD database file generated by OrangeCD 6.4
#
# Track frame offsets:
#	150
#	16273
#	37603
#	53925
#	75633
#	94289
#	112797
#	135824
#	153086
#	173644
#	191743
#
# Disc length: 2812 seconds
#
# Revision: 0
# Processed by: cddbd v1.5.2PL0 Copyright (c) Steve Scherf et al.
# Submitted via: OrangeCD 6.4
#
DISCID=710afa0b
DTITLE=The Rolling Stones - The REAL Alternate Album - Tattoo You
DYEAR=2010
DGENRE=
TTITLE0=Waiting On A Friend
TTITLE1=What's The Matter
TTITLE2=It's All Wrong
TTITLE3=Sweet Home Chicago
TTITLE4=Dancing Girls
TTITLE5=Guitar Lesson
TTITLE6=Never Too Into
TTITLE7=Petrol
TTITLE8=Linda Lu
TTITLE9=Never Make Me Cry
TTITLE10=Guess I Should Know
EXTD=
EXTT0=
EXTT1=
EXTT2=
EXTT3=
EXTT4=
EXTT5=
EXTT6=
EXTT7=
EXTT8=
EXTT9=
EXTT10=
PLAYORDER=
